<svg xmlns="http://www.w3.org/2000/svg" xml:space="preserve" id="icon-logo_svg__\u56FE\u5C42_1" x="0" y="0" viewBox="0 0 1226 306" fill="#fff" alt="立创开源硬件平台"><style>.icon-logo_svg__st0{fill:#fff}</style><path d="M415.3 277.4v10.7h-66.8v-10.7h35.8c3.4-8.6 6.9-20.9 8.5-31l11.9 2.4c-2.5 10.2-5.9 20.6-9 28.6zm-3.2-32.3h-60.3v-10.7h25.6c-.6-3.3-2.1-7.8-3.3-11.2l10.6-2.6c1.5 3.7 3.1 8.5 4 11.7l-7.5 2.1H412v10.7zm-46.2 31.3c-.8-7.5-3.3-19-5.6-27.7l10.6-2.6c2.6 8.8 5.1 19.8 6.3 27.3zM492.7 280.5c2.7 0 3.3-1.4 3.7-8.6 2.2 1.6 6.2 3.2 9 3.8-1.1 10.4-3.8 13.6-11.8 13.6H483c-9.4 0-12.3-2.7-12.3-12.3v-24l-1.1.8c-1.6-2.2-5.2-6.2-7.4-7.9 8.6-5.6 16.2-15.2 20-24.4l9.6 3c-.4 1-.9 2-1.4 3 5.1 5.6 11.4 12.4 14.5 17.3v-14.9H515v41.8h-10v-26l-4.6 4.4-.1 1.2c-.4 11.8-1.2 17.3-2.9 19.4-1.5 1.8-3.3 2.5-5.3 2.8-1.9.3-4.8.4-8.1.3-.1-2.7-1.2-6.4-2.5-8.8 2.2.3 4.1.3 5.2.3.9 0 1.5-.1 2.1-.8s.9-2.9 1.3-7.7h-9.2v19.9c0 3.2.5 3.6 3.6 3.6h8.2zm2-32.5c-2.6-3.6-5.9-7.8-9.1-11.6-2.7 4.3-5.8 8.2-9.2 11.6zm34.4-24.7v55.6c0 5.7-1.1 8.3-4.5 9.9s-8.5 1.9-15.3 1.9c-.4-2.9-2-7.4-3.5-10.2 4.3.2 9.3.2 10.8.2 1.4-.1 2-.5 2-1.9v-55.5zM646.7 261.8h-14.2v28.9h-11.1v-28.9h-15.2c-1.4 10.7-5.7 21.5-17.9 29.2-1.9-2.4-5.9-6.2-8.6-7.9 9.8-5.9 13.7-13.5 15.3-21.3h-14.9v-10.1H596v-16.1h-13.6v-9.9h62.2v9.9h-12.2v16.1h14.2v10.1zm-25.3-10.1v-16.1h-14.5v16.1zM706.1 256.6c-2.5-2-8-5.1-11.6-7.3l6-7.6c3.5 1.7 9 4.6 11.9 6.4zm7.3 9.8c-2.6 7.9-5.6 16-8.7 23.4l-9.6-5.6c2.8-5.7 6.7-14.8 9.7-23.5zm-3.8-29.1c-2.5-2-8.1-5.3-11.7-7.5l6.1-7.5c3.5 1.8 9.2 4.8 12 6.7zm39.3 29.8V281c0 4.3-.6 6.7-3.5 8.1-2.8 1.4-6.3 1.5-10.6 1.5-.3-2.3-1.2-5.4-2.1-7.8-.9 1.6-1.8 3-2.6 4.3-2-1.5-5.9-3.8-8.2-5 2.5-3.3 5.2-8.4 6.8-12.8l9.3 2.7c-1.2 3.1-3 6.6-4.7 9.6 1.9.1 3.9.1 4.6.1.8 0 1.1-.2 1.1-.9v-13.6h-10.6v-27h9c.6-1.7 1.2-3.5 1.5-5h-12.1V246c0 13.1-1.4 32.9-10.1 45-1.9-1.7-6.4-4.5-8.9-5.6 8.1-11.1 8.8-27.7 8.8-39.4v-20.2h46.1v9.4H745l5.9 1c-.9 1.4-1.8 2.8-2.7 4h12.7v27h-12zm2.3-19.6h-13.7v2.6h13.7zm-13.7 12.2h13.7V257h-13.7zm20.9 8.6c2.1 4.4 5 10.3 6.3 13.9l-9.7 4.1c-1.1-3.8-3.7-9.9-5.7-14.6zM862.9 266.1c-.6 4.1-1.7 7.9-3.7 11.4 5.3 2.3 12.1 3.6 20.5 4.1-2.1 2.2-4.7 6.4-5.9 9.1-8.7-1-15.5-2.9-21-5.9-2.9 2.3-6.6 4.3-11.1 5.8-1.2-2.2-4.3-6.2-6.3-8.2.8-.1 1.5-.3 2.2-.5H824v5.2h-8.8v-20c-.7.9-1.3 1.7-2 2.5-.4-2.9-2.1-10-3.5-13.1 4.2-5.7 7-13.7 8.8-22.5h-7.8v-9.5h26.8v9.5h-9c-.9 4.4-2.1 8.9-3.5 13.3h12.7v34.6q4.5-1.2 7.5-3c-2.5-2.8-4.7-6-6.6-9.8l9-1.9c1 1.8 2.2 3.5 3.6 4.9.9-1.9 1.4-3.9 1.7-6H840v-28.6h13.2v-3.6H839v-9.4h39.4v9.4h-15.3v3.6H877v28.6zm-33.8-9.6H824v16.3h5.1zm20.1-8.3h4.1v-2.9h-4.1zm0 10.2h4.1v-3h-4.1zm14.1-10.2h4.1v-2.9h-4.1zm4.1 7.2h-4.1v3h4.1zM950.8 225.1c-1.9 5.1-4.3 10.4-7 15.4v50h-10v-34.7c-1 1.3-2.1 2.5-3.1 3.6-.9-2.6-3.8-8.5-5.5-11.1 6.2-6.3 12.2-16.3 15.7-26.3zm44 41.5h-18v24h-10.6v-24h-19v-10.3h19v-10.6h-7.4c-1.3 3.3-2.7 6.2-4 8.6-2.1-1.5-6.7-3.9-9.2-5 3.8-5.5 6.8-14.7 8.4-23.3l10.1 2.1c-.5 2.4-1.1 4.9-1.8 7.3h3.9v-12.7h10.6v12.7h14.4v10.3h-14.4v10.6h18zM1109.6 267.4h-27.8v23.2h-11v-23.2h-27.6v-10.7h27.6v-20.2h-23.7V226h58.3v10.4h-23.6v20.2h27.8zm-48.9-29.3c2.2 4.4 4.6 10 5.3 13.9l-10.3 3.2c-.6-3.7-2.5-9.7-4.6-14.3zm25.7 14.2c2-4 4.3-9.8 5.4-14.3l11.3 2.8c-2.5 5.4-5.3 10.7-7.5 14.1zM1215.6 255.5c-.9-1.5-2-3.3-3.4-5.2-36.9 1.6-42.6 1.7-46.9 3.2-.5-2-2.2-7.3-3.5-10.1 2.2-.5 3.8-1.8 6.1-4.1 2.5-2.2 10.1-10.9 14.6-19.4l10.6 4.6c-4.1 6-9.2 12-14.3 17l25.7-.7c-2.5-2.8-4.9-5.5-7.2-7.9l8.2-5.5c6.4 6.3 15.1 15.3 19 21.5zm-48.8 2.2h50.5v32.9h-11.4V287h-28.4v3.6h-10.8v-32.9zm10.8 19.2h28.4v-9.1h-28.4zM348.5 109.4c0-41.3 23.4-64.7 57.8-64.7s57.8 23.5 57.8 64.7c0 41.3-23.4 66-57.8 66-34.4.1-57.8-24.6-57.8-66m84.8 0c0-24.4-10.3-38.8-27-38.8s-26.8 14.4-26.8 38.8c0 24.6 10.2 40 26.8 40s27-15.4 27-40M479.6 157.4l17.1-20.8c9 7.6 20.7 12.9 30.7 12.9 11.2 0 16.4-4.2 16.4-11 0-7.3-7-9.7-17.8-14.2l-16.1-6.8c-13.2-5.2-25.6-16.3-25.6-34.5 0-21.2 19-38.1 45.8-38.1 14.6 0 30 5.6 41 16.6l-15.1 19c-8.3-6.3-16.1-9.7-25.9-9.7-9.3 0-15.1 3.7-15.1 10.5 0 6.9 8 9.7 19.2 14.1l15.8 6.3c15.6 6.3 24.9 16.8 24.9 34.5 0 21-17.6 39.5-48.2 39.5-16.4-.2-34.1-6.3-47.1-18.3M595.9 47.1h30.3V95h41.6V47.1h30v126h-30v-51.8h-41.6v51.8h-30.3zM714.9 47.1h31l8 57.4 5.1 40h.7c2.4-13.4 4.9-26.9 7.5-40L780 47.1h25.4l13.2 57.4c2.5 12.9 4.7 26.4 7.3 40h.8c1.5-13.5 3.2-26.9 4.7-40l8.1-57.4h28.8l-21.9 126h-38.2l-11.4-54.9c-2-9.7-3.7-19.8-4.9-29.3h-.8c-1.5 9.5-3.1 19.6-4.9 29.3l-11 54.9H738zM1165.4 102.9c-5.1 0-9.3 2.3-14.1 7.4v34.8c4.3 3.9 9 5.1 13.2 5.1 8.4 0 15.2-7 15.2-24.6 0-15.4-4.5-22.7-14.3-22.7" class="icon-logo_svg__st0"></path><path d="M1207.1 15H906.8c-9.6 0-17.4 7.8-17.4 17.3v151.3c0 9.5 7.8 17.3 17.4 17.3h300.4c9.6 0 17.4-7.8 17.4-17.3V32.3c-.1-9.5-7.9-17.3-17.5-17.3m-196.4 158h-30v-51.8h-41.5V173h-30.4V47h30.4v48h41.5V47.1h30zm96.1-2.3h-22.5l-2-12.1h-.6c-7.3 8.7-15.5 14.2-27.6 14.2-19.2 0-27.4-13.8-27.4-35.7V82.7h27.6v51c0 12.2 3.3 15.6 10.2 15.6 6.2 0 10.1-2.5 14.7-9V82.7h27.6zm64.2 2.1c-7.7 0-15.8-3.9-22.8-11.6h-.6l-2.2 9.4h-21.5V47.1h27.4v29.7l-.6 13.1c6.5-5.9 14.7-9.4 22.8-9.4 21.1 0 34.5 17.6 34.5 44.5 0 30.5-18.1 47.8-37 47.8M134 0 1.5 76.5v153L134 306l132.5-76.5v-153zm0 297.3L9 225.2V80.8L59 52v144.3l50 28.9V178h50v104.9zm125-72.1L209 254V109.7l-50-28.9V128h-50V23.1l25-14.4 125 72.2z" class="icon-logo_svg__st0"></path></svg>